<svg width="18" height="18" viewBox="0 0 18 18" fill="none" xmlns="http://www.w3.org/2000/svg">
<path d="M17.6402 9.18199C17.6402 8.56379 17.5832 7.96379 17.4772 7.37779H9.00018V10.8402H13.8442C13.6352 11.9702 13.0012 12.9232 12.0482 13.5612V15.8192H14.4842C16.3492 14.1222 17.6402 11.8842 17.6402 9.18199Z" fill="#4285F4"/>
<path d="M9.00002 18.0002C11.432 18.0002 13.468 17.1932 14.484 15.8192L12.048 13.5612C11.257 14.0972 10.228 14.4212 9.00002 14.4212C6.65602 14.4212 4.67102 12.8372 3.96402 10.71H1.42002V13.041C2.43802 15.091 5.48202 18.0002 9.00002 18.0002Z" fill="#34A853"/>
<path d="M3.96393 10.7098C3.78393 10.1728 3.67093 9.59979 3.67093 8.99979C3.67093 8.39979 3.78393 7.82 बोर्ड (बोर्ड .82679 3.96393 7.28979V4.95879H1.42093C0.519929 6.61879 0.000928617 8.60179 0.000928617 8.99979C0.000928617 9.39779 0.519929 11.3808 1.42093 13.0408L3.96393 10.7098Z" fill="#FBBC05"/>
<path d="M9.00002 3.57894C10.321 3.57894 11.508 4.03194 12.44 4.92294L14.539 2.89494C13.464 1.91294 11.432 0 9.00002 0C5.48202 0 2.43802 2.90894 1.42002 4.95894L3.96402 7.28994C4.67102 5.16294 6.65602 3.57894 9.00002 3.57894Z" fill="#EA4335"/>
</svg>
